<svg id="图层_1" data-name="图层 1" xmlns="http://www.w3.org/2000/svg" xmlns:xlink="http://www.w3.org/1999/xlink" viewBox="0 0 908 908"><defs><style>.cls-1{fill:url(#未命名的渐变);}.cls-2{fill:#f89825;}</style><linearGradient id="未命名的渐变" x1="453.11" y1="683.93" x2="453.11" y2="223.45" gradientTransform="matrix(1, 0, 0, -1, 0.89, 907.7)" gradientUnits="userSpaceOnUse"><stop offset="0" stop-color="#ffde94"/><stop offset="1" stop-color="#ff8152"/></linearGradient></defs><title>bitcoin</title><path class="cls-1" d="M620.74,449.27c57-43.5,43-113.4,43-113.4-5.5-23.72-15.19-42.59-26.63-57.55-26.57-34.73-68.24-54.55-112-54.55H242.74v85h257c28,13.33,28,45,28,45,0,41.33-28,52.7-28,52.7H287.39v-31.7h159.9a19.45,19.45,0,0,0,19.45-19.45h0a19.45,19.45,0,0,0-19.45-19.45H243.74v38.9h-1V565.7H444.56a26.6,26.6,0,0,0,26.6-26.6h0a26.6,26.6,0,0,0-26.6-26.6H287.39v-21H499.74c29,4.63,27.65,46.1,27.56,48.3-1.56,39.33-26.56,46.9-26.56,46.9h-257v97.49h257c40.25,1.11,72-13.39,72-13.39,93-56,87-131.7,87-131.7C655.74,479.38,620.74,449.27,620.74,449.27Z" transform="translate(0)"/><path class="cls-2" d="M454,0C203.26,0,0,203.26,0,454S203.26,908,454,908,908,704.74,908,454,704.73,0,454,0Zm0,826.5C248.27,826.5,81.5,659.7,81.5,454S248.27,81.5,454,81.5,826.5,248.27,826.5,454,659.72,826.5,454,826.5Z" transform="translate(0)"/></svg>